<svg width="68" height="68" xmlns="http://www.w3.org/2000/svg"><g fill="#707070"><path d="M22 14v46h30V14H22zm0-4h30a4 4 0 0 1 4 4v46a4 4 0 0 1-4 4H22a4 4 0 0 1-4-4V14a4 4 0 0 1 4-4z"/><path d="M30 20.77c-.552 0-1 .413-1 .922v4.616c0 .51.448.923 1 .923h14c.552 0 1-.414 1-.923v-4.616c0-.51-.448-.923-1-.923H30zM30 18h14c2.21 0 4 1.653 4 3.692v4.616C48 28.347 46.21 30 44 30H30c-2.21 0-4-1.653-4-3.692v-4.616C26 19.653 27.79 18 30 18zm-2.881 21C26.5 39 26 38.328 26 37.5s.5-1.5 1.119-1.5H46.88c.62 0 1.12.672 1.12 1.5s-.5 1.5-1.119 1.5H27.12zm0 7C26.5 46 26 45.328 26 44.5s.5-1.5 1.119-1.5H46.88c.62 0 1.12.672 1.12 1.5s-.5 1.5-1.119 1.5H27.12zm0 7C26.5 53 26 52.328 26 51.5s.5-1.5 1.119-1.5H46.88c.62 0 1.12.672 1.12 1.5s-.5 1.5-1.119 1.5H27.12z"/><path d="M17 53v4a6 6 0 0 1-6-6V9a6 6 0 0 1 6-6h26a6 6 0 0 1 6 6h-4a2 2 0 0 0-2-2H17a2 2 0 0 0-2 2v42a2 2 0 0 0 2 2z"/></g></svg>